<svg height="900" viewBox="0 0 900 900" width="900" xmlns="http://www.w3.org/2000/svg"><path d="m0 0h900v900h-900z" fill="#e5b9b0"/><g transform="translate(900)"><path d="m0 445.5c-33.4-24.9-66.7-49.8-104-57.2-37.4-7.4-78.6 2.5-117-5.5-38.4-8.1-73.8-34.2-94-67.8s-25.1-74.7-42.7-108.5c-17.5-33.8-47.7-60.2-64.4-93.4s-20.1-73.1-23.4-113.1h445.5z" fill="#e9cabc"/><path d="m0 297c-22.2-16.6-44.5-33.2-69.4-38.1-24.8-5-52.4 1.7-77.9-3.7-25.6-5.4-49.2-22.8-62.7-45.2s-16.7-49.8-28.4-72.3-31.8-40.2-43-62.3-13.4-48.8-15.6-75.4h297z" fill="#f2eadf"/><path d="m0 148.5c-11.1-8.3-22.2-16.6-34.7-19.1-12.4-2.4-26.2.9-39-1.8s-24.6-11.4-31.3-22.6-8.4-24.9-14.2-36.2c-5.9-11.2-15.9-20-21.5-31.1s-6.7-24.4-7.8-37.7h148.5z" fill="#faf9f4"/></g><g transform="translate(0 900)"><path d="m0-445.5c32.9 27.6 65.9 55.3 101.7 65.9 35.9 10.6 74.7 4.3 110.3 12.4s68.1 30.7 99.1 56.1c31.1 25.4 60.7 53.7 74.7 88.4s12.5 75.8 19.9 114c7.3 38.2 23.6 73.4 39.8 108.7h-445.5z" fill="#e9cabc"/><path d="m0-297c22 18.4 43.9 36.8 67.8 43.9s49.8 2.9 73.5 8.3c23.8 5.4 45.4 20.4 66.1 37.4 20.7 16.9 40.4 35.8 49.8 58.9s8.4 50.6 13.3 76c4.9 25.5 15.7 49 26.5 72.5h-297z" fill="#f2eadf"/><path d="m0-148.5c11 9.2 22 18.4 33.9 22 12 3.5 24.9 1.4 36.8 4.1 11.8 2.7 22.7 10.2 33 18.7 10.4 8.5 20.2 17.9 24.9 29.5 4.7 11.5 4.2 25.2 6.6 38 2.5 12.7 7.9 24.4 13.3 36.2h-148.5z" fill="#faf9f4"/></g></svg>