<svg id="visual" viewBox="0 0 900 600" width="900" height="600" xmlns="http://www.w3.org/2000/svg" xmlns:xlink="http://www.w3.org/1999/xlink" version="1.1"><rect x="0" y="0" width="900" height="600" fill="#ffffff"></rect><g fill="#2bf3df"><circle r="30" cx="379" cy="523"></circle><circle r="2" cx="290" cy="590"></circle><circle r="12" cx="307" cy="498"></circle><circle r="10" cx="876" cy="586"></circle><circle r="21" cx="489" cy="506"></circle><circle r="5" cx="436" cy="438"></circle><circle r="10" cx="199" cy="235"></circle><circle r="19" cx="852" cy="128"></circle><circle r="17" cx="111" cy="49"></circle><circle r="6" cx="52" cy="36"></circle><circle r="8" cx="399" cy="62"></circle><circle r="14" cx="480" cy="355"></circle><circle r="6" cx="757" cy="48"></circle><circle r="3" cx="664" cy="285"></circle><circle r="21" cx="209" cy="315"></circle><circle r="22" cx="377" cy="404"></circle><circle r="1" cx="424" cy="592"></circle><circle r="5" cx="103" cy="317"></circle><circle r="6" cx="208" cy="450"></circle><circle r="10" cx="344" cy="116"></circle><circle r="5" cx="242" cy="499"></circle><circle r="6" cx="455" cy="216"></circle><circle r="24" cx="890" cy="458"></circle><circle r="24" cx="14" cy="568"></circle><circle r="9" cx="56" cy="486"></circle><circle r="27" cx="278" cy="205"></circle><circle r="10" cx="114" cy="153"></circle><circle r="18" cx="370" cy="186"></circle><circle r="14" cx="496" cy="32"></circle><circle r="6" cx="811" cy="72"></circle><circle r="11" cx="889" cy="3"></circle><circle r="6" cx="745" cy="559"></circle><circle r="11" cx="632" cy="101"></circle><circle r="24" cx="587" cy="492"></circle><circle r="21" cx="64" cy="227"></circle><circle r="11" cx="588" cy="40"></circle><circle r="22" cx="737" cy="216"></circle><circle r="26" cx="175" cy="542"></circle><circle r="1" cx="212" cy="174"></circle><circle r="16" cx="367" cy="252"></circle><circle r="26" cx="542" cy="156"></circle><circle r="10" cx="698" cy="126"></circle><circle r="3" cx="92" cy="534"></circle><circle r="24" cx="64" cy="377"></circle><circle r="15" cx="5" cy="293"></circle><circle r="15" cx="626" cy="416"></circle><circle r="3" cx="120" cy="455"></circle><circle r="21" cx="232" cy="11"></circle><circle r="1" cx="619" cy="589"></circle><circle r="1" cx="771" cy="122"></circle><circle r="18" cx="281" cy="394"></circle><circle r="27" cx="864" cy="190"></circle><circle r="13" cx="312" cy="327"></circle><circle r="28" cx="9" cy="97"></circle><circle r="3" cx="812" cy="3"></circle><circle r="6" cx="723" cy="491"></circle><circle r="11" cx="119" cy="251"></circle><circle r="26" cx="494" cy="100"></circle><circle r="22" cx="610" cy="216"></circle><circle r="23" cx="536" cy="597"></circle><circle r="27" cx="827" cy="425"></circle><circle r="13" cx="11" cy="166"></circle><circle r="4" cx="803" cy="551"></circle><circle r="24" cx="882" cy="277"></circle><circle r="27" cx="674" cy="540"></circle><circle r="25" cx="394" cy="338"></circle></g></svg>