<svg height="540" viewBox="0 0 960 540" width="960" xmlns="http://www.w3.org/2000/svg"><path d="m0 0h960v540h-960z" fill="#e5b9b0"/><g transform="translate(960)"><path d="m0 378c-27.3-21.5-54.6-43-88.8-46.7s-75.2 10.4-98.7-6.5c-23.5-17-29.4-64.9-40.9-96.4s-28.7-46.6-55.7-64.4c-26.9-17.8-63.7-38.4-81-66.2s-15.1-62.8-12.9-97.8h378z" fill="#e9cabc"/><path d="m0 252c-18.2-14.3-36.4-28.7-59.2-31.1-22.8-2.5-50.1 6.9-65.8-4.4s-19.6-43.2-27.3-64.2c-7.6-21-19.1-31.1-37.1-43-18-11.8-42.5-25.6-54-44.1s-10.1-41.9-8.6-65.2h252z" fill="#f2eadf"/><path d="m0 126c-9.1-7.2-18.2-14.3-29.6-15.6-11.4-1.2-25.1 3.5-32.9-2.1-7.8-5.7-9.8-21.7-13.6-32.2-3.9-10.5-9.6-15.5-18.6-21.4-9-6-21.2-12.8-27-22.1s-5-20.9-4.3-32.6h126z" fill="#faf9f4"/></g><g transform="translate(0 540)"><path d="m0-378c25.7 29.5 51.4 59 84.4 63.1s73.3-17.3 104.1-11.6 52.2 38.5 71 67 35.1 52.8 54 78.5 40.4 52.8 51.6 83.2 12.1 64.1 12.9 97.8h-378z" fill="#e9cabc"/><path d="m0-252c17.1 19.7 34.3 39.4 56.3 42.1 21.9 2.7 48.8-11.6 69.4-7.8 20.5 3.8 34.8 25.7 47.3 44.7 12.6 19 23.4 35.2 36 52.3 12.6 17.2 27 35.2 34.4 55.5 7.5 20.2 8 42.7 8.6 65.2h-252z" fill="#f2eadf"/><path d="m0-126c8.6 9.8 17.1 19.7 28.1 21 11 1.4 24.5-5.7 34.7-3.8 10.3 1.9 17.4 12.8 23.7 22.3s11.7 17.6 18 26.2c6.3 8.5 13.5 17.6 17.2 27.7s4 21.4 4.3 32.6h-126z" fill="#faf9f4"/></g></svg>