<svg id="visual" viewBox="0 0 900 900" width="900" height="900" xmlns="http://www.w3.org/2000/svg" xmlns:xlink="http://www.w3.org/1999/xlink" version="1.1"><rect x="0" y="0" width="900" height="900" fill="#e5b9b0"></rect><defs><linearGradient id="grad1_0" x1="0%" y1="0%" x2="100%" y2="100%"><stop offset="30%" stop-color="#faf9f4" stop-opacity="1"></stop><stop offset="70%" stop-color="#faf9f4" stop-opacity="1"></stop></linearGradient></defs><defs><linearGradient id="grad1_1" x1="0%" y1="0%" x2="100%" y2="100%"><stop offset="30%" stop-color="#faf9f4" stop-opacity="1"></stop><stop offset="70%" stop-color="#ecdbcc" stop-opacity="1"></stop></linearGradient></defs><defs><linearGradient id="grad1_2" x1="0%" y1="0%" x2="100%" y2="100%"><stop offset="30%" stop-color="#e5b9b0" stop-opacity="1"></stop><stop offset="70%" stop-color="#ecdbcc" stop-opacity="1"></stop></linearGradient></defs><defs><linearGradient id="grad2_0" x1="0%" y1="0%" x2="100%" y2="100%"><stop offset="30%" stop-color="#faf9f4" stop-opacity="1"></stop><stop offset="70%" stop-color="#faf9f4" stop-opacity="1"></stop></linearGradient></defs><defs><linearGradient id="grad2_1" x1="0%" y1="0%" x2="100%" y2="100%"><stop offset="30%" stop-color="#ecdbcc" stop-opacity="1"></stop><stop offset="70%" stop-color="#faf9f4" stop-opacity="1"></stop></linearGradient></defs><defs><linearGradient id="grad2_2" x1="0%" y1="0%" x2="100%" y2="100%"><stop offset="30%" stop-color="#ecdbcc" stop-opacity="1"></stop><stop offset="70%" stop-color="#e5b9b0" stop-opacity="1"></stop></linearGradient></defs><g transform="translate(900, 0)"><path d="M0 445.5C-33.4 420.6 -66.7 395.7 -104 388.3C-141.4 380.9 -182.6 390.8 -221 382.8C-259.4 374.7 -294.8 348.6 -315 315C-335.2 281.4 -340.1 240.3 -357.7 206.5C-375.2 172.7 -405.4 146.3 -422.1 113.1C-438.8 79.9 -442.2 40 -445.5 0L0 0Z" fill="#e9cabc"></path><path d="M0 297C-22.2 280.4 -44.5 263.8 -69.4 258.9C-94.2 253.9 -121.8 260.6 -147.3 255.2C-172.9 249.8 -196.5 232.4 -210 210C-223.5 187.6 -226.7 160.2 -238.4 137.7C-250.1 115.2 -270.2 97.5 -281.4 75.4C-292.6 53.3 -294.8 26.6 -297 0L0 0Z" fill="#f2eadf"></path><path d="M0 148.5C-11.1 140.2 -22.2 131.9 -34.7 129.4C-47.1 127 -60.9 130.3 -73.7 127.6C-86.5 124.9 -98.3 116.2 -105 105C-111.7 93.8 -113.4 80.1 -119.2 68.8C-125.1 57.6 -135.1 48.8 -140.7 37.7C-146.3 26.6 -147.4 13.3 -148.5 0L0 0Z" fill="#faf9f4"></path></g><g transform="translate(0, 900)"><path d="M0 -445.5C32.9 -417.9 65.9 -390.2 101.7 -379.6C137.6 -369 176.4 -375.3 212 -367.2C247.6 -359.1 280.1 -336.5 311.1 -311.1C342.2 -285.7 371.8 -257.4 385.8 -222.7C399.8 -188 398.3 -146.9 405.7 -108.7C413 -70.5 429.3 -35.3 445.5 0L0 0Z" fill="#e9cabc"></path><path d="M0 -297C22 -278.6 43.9 -260.2 67.8 -253.1C91.7 -246 117.6 -250.2 141.3 -244.8C165.1 -239.4 186.7 -224.4 207.4 -207.4C228.1 -190.5 247.8 -171.6 257.2 -148.5C266.6 -125.4 265.6 -97.9 270.5 -72.5C275.4 -47 286.2 -23.5 297 0L0 0Z" fill="#f2eadf"></path><path d="M0 -148.5C11 -139.3 22 -130.1 33.9 -126.5C45.9 -123 58.8 -125.1 70.7 -122.4C82.5 -119.7 93.4 -112.2 103.7 -103.7C114.1 -95.2 123.9 -85.8 128.6 -74.2C133.3 -62.7 132.8 -49 135.2 -36.2C137.7 -23.5 143.1 -11.8 148.5 0L0 0Z" fill="#faf9f4"></path></g></svg>