<svg id="visual" viewBox="0 0 540 960" width="540" height="960" xmlns="http://www.w3.org/2000/svg" xmlns:xlink="http://www.w3.org/1999/xlink" version="1.1"><path d="M0 30L12.8 36.3C25.7 42.7 51.3 55.3 77 58.5C102.7 61.7 128.3 55.3 154 52.2C179.7 49 205.3 49 231.2 52.2C257 55.3 283 61.7 308.8 61.7C334.7 61.7 360.3 55.3 386 47.3C411.7 39.3 437.3 29.7 463 31.3C488.7 33 514.3 46 527.2 52.5L540 59L540 0L527.2 0C514.3 0 488.7 0 463 0C437.3 0 411.7 0 386 0C360.3 0 334.7 0 308.8 0C283 0 257 0 231.2 0C205.3 0 179.7 0 154 0C128.3 0 102.7 0 77 0C51.3 0 25.7 0 12.8 0L0 0Z" fill="#faf9f4"></path><path d="M0 78L12.8 84.3C25.7 90.7 51.3 103.3 77 106.5C102.7 109.7 128.3 103.3 154 98.5C179.7 93.7 205.3 90.3 231.2 95.2C257 100 283 113 308.8 119.5C334.7 126 360.3 126 386 122.8C411.7 119.7 437.3 113.3 463 114.8C488.7 116.3 514.3 125.7 527.2 130.3L540 135L540 57L527.2 50.5C514.3 44 488.7 31 463 29.3C437.3 27.7 411.7 37.3 386 45.3C360.3 53.3 334.7 59.7 308.8 59.7C283 59.7 257 53.3 231.2 50.2C205.3 47 179.7 47 154 50.2C128.3 53.3 102.7 59.7 77 56.5C51.3 53.3 25.7 40.7 12.8 34.3L0 28Z" fill="#d8d8cf"></path><path d="M0 135L12.8 144.7C25.7 154.3 51.3 173.7 77 178.5C102.7 183.3 128.3 173.7 154 172C179.7 170.3 205.3 176.7 231.2 187.8C257 199 283 215 308.8 213.5C334.7 212 360.3 193 386 194.7C411.7 196.3 437.3 218.7 463 225C488.7 231.3 514.3 221.7 527.2 216.8L540 212L540 133L527.2 128.3C514.3 123.7 488.7 114.3 463 112.8C437.3 111.3 411.7 117.7 386 120.8C360.3 124 334.7 124 308.8 117.5C283 111 257 98 231.2 93.2C205.3 88.3 179.7 91.7 154 96.5C128.3 101.3 102.7 107.7 77 104.5C51.3 101.3 25.7 88.7 12.8 82.3L0 76Z" fill="#b5b8ac"></path><path d="M0 164L12.8 178.5C25.7 193 51.3 222 77 225.2C102.7 228.3 128.3 205.7 154 199.2C179.7 192.7 205.3 202.3 231.2 220C257 237.7 283 263.3 308.8 261.8C334.7 260.3 360.3 231.7 386 230C411.7 228.3 437.3 253.7 463 260C488.7 266.3 514.3 253.7 527.2 247.3L540 241L540 210L527.2 214.8C514.3 219.7 488.7 229.3 463 223C437.3 216.7 411.7 194.3 386 192.7C360.3 191 334.7 210 308.8 211.5C283 213 257 197 231.2 185.8C205.3 174.7 179.7 168.3 154 170C128.3 171.7 102.7 181.3 77 176.5C51.3 171.7 25.7 152.3 12.8 142.7L0 133Z" fill="#929a8b"></path><path d="M0 452L12.8 448.8C25.7 445.7 51.3 439.3 77 421.8C102.7 404.3 128.3 375.7 154 375.7C179.7 375.7 205.3 404.3 231.2 418.7C257 433 283 433 308.8 420.2C334.7 407.3 360.3 381.7 386 384.8C411.7 388 437.3 420 463 418.5C488.7 417 514.3 382 527.2 364.5L540 347L540 239L527.2 245.3C514.3 251.7 488.7 264.3 463 258C437.3 251.7 411.7 226.3 386 228C360.3 229.7 334.7 258.3 308.8 259.8C283 261.3 257 235.7 231.2 218C205.3 200.3 179.7 190.7 154 197.2C128.3 203.7 102.7 226.3 77 223.2C51.3 220 25.7 191 12.8 176.5L0 162Z" fill="#6e7d6d"></path><path d="M0 500L12.8 498.5C25.7 497 51.3 494 77 474.8C102.7 455.7 128.3 420.3 154 418.7C179.7 417 205.3 449 231.2 471.3C257 493.7 283 506.3 308.8 493.5C334.7 480.7 360.3 442.3 386 440.8C411.7 439.3 437.3 474.7 463 474.7C488.7 474.7 514.3 439.3 527.2 421.7L540 404L540 345L527.2 362.5C514.3 380 488.7 415 463 416.5C437.3 418 411.7 386 386 382.8C360.3 379.7 334.7 405.3 308.8 418.2C283 431 257 431 231.2 416.7C205.3 402.3 179.7 373.7 154 373.7C128.3 373.7 102.7 402.3 77 419.8C51.3 437.3 25.7 443.7 12.8 446.8L0 450Z" fill="#607262"></path><path d="M0 644L12.8 632.8C25.7 621.7 51.3 599.3 77 583.3C102.7 567.3 128.3 557.7 154 570.5C179.7 583.3 205.3 618.7 231.2 628.3C257 638 283 622 308.8 594.8C334.7 567.7 360.3 529.3 386 535.7C411.7 542 437.3 593 463 597.7C488.7 602.3 514.3 560.7 527.2 539.8L540 519L540 402L527.2 419.7C514.3 437.3 488.7 472.7 463 472.7C437.3 472.7 411.7 437.3 386 438.8C360.3 440.3 334.7 478.7 308.8 491.5C283 504.3 257 491.7 231.2 469.3C205.3 447 179.7 415 154 416.7C128.3 418.3 102.7 453.7 77 472.8C51.3 492 25.7 495 12.8 496.5L0 498Z" fill="#607262"></path><path d="M0 692L12.8 690.5C25.7 689 51.3 686 77 670C102.7 654 128.3 625 154 637.7C179.7 650.3 205.3 704.7 231.2 711.2C257 717.7 283 676.3 308.8 639.7C334.7 603 360.3 571 386 579C411.7 587 437.3 635 463 649.3C488.7 663.7 514.3 644.3 527.2 634.7L540 625L540 517L527.2 537.8C514.3 558.7 488.7 600.3 463 595.7C437.3 591 411.7 540 386 533.7C360.3 527.3 334.7 565.7 308.8 592.8C283 620 257 636 231.2 626.3C205.3 616.7 179.7 581.3 154 568.5C128.3 555.7 102.7 565.3 77 581.3C51.3 597.3 25.7 619.7 12.8 630.8L0 642Z" fill="#6e7d6d"></path><path d="M0 884L12.8 882.5C25.7 881 51.3 878 77 868.5C102.7 859 128.3 843 154 841.3C179.7 839.7 205.3 852.3 231.2 852.3C257 852.3 283 839.7 308.8 834.8C334.7 830 360.3 833 386 833C411.7 833 437.3 830 463 833.2C488.7 836.3 514.3 845.7 527.2 850.3L540 855L540 623L527.2 632.7C514.3 642.3 488.7 661.7 463 647.3C437.3 633 411.7 585 386 577C360.3 569 334.7 601 308.8 637.7C283 674.3 257 715.7 231.2 709.2C205.3 702.7 179.7 648.3 154 635.7C128.3 623 102.7 652 77 668C51.3 684 25.7 687 12.8 688.5L0 690Z" fill="#929a8b"></path><path d="M0 903L12.8 904.7C25.7 906.3 51.3 909.7 77 900.2C102.7 890.7 128.3 868.3 154 865.2C179.7 862 205.3 878 231.2 882.8C257 887.7 283 881.3 308.8 879.7C334.7 878 360.3 881 386 879.3C411.7 877.7 437.3 871.3 463 874.5C488.7 877.7 514.3 890.3 527.2 896.7L540 903L540 853L527.2 848.3C514.3 843.7 488.7 834.3 463 831.2C437.3 828 411.7 831 386 831C360.3 831 334.7 828 308.8 832.8C283 837.7 257 850.3 231.2 850.3C205.3 850.3 179.7 837.7 154 839.3C128.3 841 102.7 857 77 866.5C51.3 876 25.7 879 12.8 880.5L0 882Z" fill="#b5b8ac"></path><path d="M0 932L12.8 932C25.7 932 51.3 932 77 927.2C102.7 922.3 128.3 912.7 154 912.7C179.7 912.7 205.3 922.3 231.2 927.2C257 932 283 932 308.8 927.2C334.7 922.3 360.3 912.7 386 909.5C411.7 906.3 437.3 909.7 463 914.5C488.7 919.3 514.3 925.7 527.2 928.8L540 932L540 901L527.2 894.7C514.3 888.3 488.7 875.7 463 872.5C437.3 869.3 411.7 875.7 386 877.3C360.3 879 334.7 876 308.8 877.7C283 879.3 257 885.7 231.2 880.8C205.3 876 179.7 860 154 863.2C128.3 866.3 102.7 888.7 77 898.2C51.3 907.7 25.7 904.3 12.8 902.7L0 901Z" fill="#d8d8cf"></path><path d="M0 961L12.8 961C25.7 961 51.3 961 77 961C102.7 961 128.3 961 154 961C179.7 961 205.3 961 231.2 961C257 961 283 961 308.8 961C334.7 961 360.3 961 386 961C411.7 961 437.3 961 463 961C488.7 961 514.3 961 527.2 961L540 961L540 930L527.2 926.8C514.3 923.7 488.7 917.3 463 912.5C437.3 907.7 411.7 904.3 386 907.5C360.3 910.7 334.7 920.3 308.8 925.2C283 930 257 930 231.2 925.2C205.3 920.3 179.7 910.7 154 910.7C128.3 910.7 102.7 920.3 77 925.2C51.3 930 25.7 930 12.8 930L0 930Z" fill="#faf9f4"></path></svg>