<svg id="visual" viewBox="0 0 900 600" width="900" height="600" xmlns="http://www.w3.org/2000/svg" xmlns:xlink="http://www.w3.org/1999/xlink" version="1.1"><rect x="0" y="0" width="900" height="600" fill="#ffffff"></rect><g fill="#f924a1"><circle r="30" cx="519" cy="562"></circle><circle r="2" cx="423" cy="253"></circle><circle r="12" cx="155" cy="282"></circle><circle r="14" cx="345" cy="142"></circle><circle r="7" cx="208" cy="46"></circle><circle r="3" cx="230" cy="366"></circle><circle r="1" cx="737" cy="524"></circle><circle r="1" cx="427" cy="483"></circle><circle r="12" cx="308" cy="24"></circle><circle r="3" cx="797" cy="407"></circle><circle r="3" cx="176" cy="421"></circle><circle r="22" cx="754" cy="12"></circle><circle r="16" cx="73" cy="326"></circle><circle r="15" cx="157" cy="495"></circle><circle r="23" cx="558" cy="374"></circle><circle r="2" cx="276" cy="594"></circle><circle r="22" cx="888" cy="386"></circle><circle r="14" cx="556" cy="106"></circle><circle r="18" cx="696" cy="282"></circle><circle r="3" cx="354" cy="73"></circle><circle r="12" cx="438" cy="377"></circle><circle r="6" cx="154" cy="92"></circle><circle r="28" cx="508" cy="405"></circle><circle r="4" cx="619" cy="220"></circle><circle r="10" cx="266" cy="514"></circle><circle r="1" cx="72" cy="17"></circle><circle r="5" cx="300" cy="280"></circle><circle r="24" cx="548" cy="272"></circle><circle r="2" cx="548" cy="20"></circle><circle r="12" cx="486" cy="263"></circle><circle r="6" cx="34" cy="541"></circle><circle r="21" cx="849" cy="481"></circle><circle r="21" cx="760" cy="117"></circle><circle r="25" cx="204" cy="226"></circle><circle r="17" cx="477" cy="519"></circle><circle r="2" cx="871" cy="143"></circle><circle r="24" cx="359" cy="316"></circle><circle r="4" cx="846" cy="585"></circle><circle r="10" cx="882" cy="322"></circle><circle r="16" cx="442" cy="30"></circle><circle r="27" cx="14" cy="376"></circle><circle r="19" cx="624" cy="324"></circle><circle r="10" cx="592" cy="563"></circle><circle r="13" cx="108" cy="136"></circle><circle r="24" cx="679" cy="539"></circle><circle r="23" cx="669" cy="411"></circle><circle r="24" cx="25" cy="81"></circle><circle r="1" cx="763" cy="209"></circle><circle r="14" cx="453" cy="122"></circle><circle r="26" cx="266" cy="79"></circle><circle r="7" cx="109" cy="456"></circle><circle r="18" cx="834" cy="219"></circle><circle r="9" cx="814" cy="47"></circle><circle r="5" cx="697" cy="222"></circle><circle r="7" cx="81" cy="230"></circle><circle r="9" cx="40" cy="170"></circle><circle r="22" cx="775" cy="338"></circle><circle r="19" cx="702" cy="474"></circle><circle r="18" cx="369" cy="503"></circle><circle r="23" cx="156" cy="563"></circle><circle r="11" cx="239" cy="308"></circle><circle r="3" cx="73" cy="390"></circle><circle r="14" cx="603" cy="452"></circle><circle r="14" cx="354" cy="571"></circle><circle r="25" cx="190" cy="152"></circle><circle r="27" cx="88" cy="596"></circle><circle r="3" cx="544" cy="502"></circle><circle r="24" cx="25" cy="287"></circle><circle r="12" cx="622" cy="102"></circle><circle r="6" cx="133" cy="189"></circle><circle r="9" cx="485" cy="338"></circle><circle r="19" cx="218" cy="562"></circle><circle r="27" cx="737" cy="389"></circle><circle r="28" cx="297" cy="401"></circle><circle r="19" cx="424" cy="174"></circle><circle r="9" cx="412" cy="583"></circle><circle r="26" cx="826" cy="284"></circle><circle r="9" cx="787" cy="559"></circle><circle r="27" cx="511" cy="172"></circle><circle r="28" cx="702" cy="44"></circle><circle r="4" cx="245" cy="446"></circle><circle r="2" cx="687" cy="343"></circle><circle r="1" cx="890" cy="57"></circle><circle r="18" cx="327" cy="454"></circle><circle r="2" cx="653" cy="592"></circle><circle r="14" cx="299" cy="215"></circle><circle r="17" cx="885" cy="534"></circle><circle r="7" cx="484" cy="459"></circle><circle r="15" cx="364" cy="234"></circle><circle r="2" cx="253" cy="145"></circle><circle r="3" cx="128" cy="360"></circle><circle r="24" cx="17" cy="460"></circle><circle r="22" cx="620" cy="41"></circle><circle r="3" cx="721" cy="164"></circle><circle r="6" cx="631" cy="161"></circle><circle r="28" cx="377" cy="386"></circle><circle r="14" cx="287" cy="343"></circle><circle r="9" cx="491" cy="71"></circle><circle r="23" cx="688" cy="115"></circle><circle r="27" cx="895" cy="216"></circle><circle r="6" cx="1" cy="597"></circle><circle r="28" cx="145" cy="27"></circle><circle r="26" cx="11" cy="225"></circle><circle r="20" cx="859" cy="6"></circle><circle r="18" cx="249" cy="5"></circle><circle r="20" cx="560" cy="210"></circle><circle r="10" cx="384" cy="20"></circle><circle r="25" cx="784" cy="482"></circle><circle r="3" cx="94" cy="526"></circle><circle r="2" cx="761" cy="273"></circle><circle r="27" cx="725" cy="596"></circle><circle r="20" cx="418" cy="319"></circle><circle r="7" cx="469" cy="597"></circle><circle r="28" cx="96" cy="74"></circle><circle r="5" cx="625" cy="509"></circle><circle r="21" cx="8" cy="13"></circle></g></svg>