<svg id="visual" viewBox="0 0 600 900" width="600" height="900" xmlns="http://www.w3.org/2000/svg" xmlns:xlink="http://www.w3.org/1999/xlink" version="1.1"><rect x="0" y="0" width="600" height="900" fill="#ffffff"></rect><g fill="#f924a1"><circle r="46" cx="325" cy="115"></circle><circle r="9" cx="562" cy="495"></circle><circle r="38" cx="500" cy="307"></circle><circle r="32" cx="168" cy="695"></circle><circle r="14" cx="178" cy="143"></circle><circle r="36" cx="402" cy="473"></circle><circle r="12" cx="166" cy="39"></circle><circle r="41" cx="277" cy="225"></circle><circle r="33" cx="317" cy="692"></circle><circle r="16" cx="129" cy="396"></circle><circle r="35" cx="306" cy="847"></circle><circle r="27" cx="55" cy="787"></circle><circle r="17" cx="276" cy="395"></circle><circle r="24" cx="477" cy="679"></circle><circle r="13" cx="92" cy="184"></circle><circle r="34" cx="68" cy="497"></circle><circle r="17" cx="404" cy="36"></circle><circle r="23" cx="258" cy="17"></circle><circle r="22" cx="371" cy="220"></circle><circle r="35" cx="198" cy="837"></circle><circle r="19" cx="39" cy="376"></circle><circle r="44" cx="272" cy="584"></circle><circle r="22" cx="450" cy="144"></circle><circle r="30" cx="574" cy="734"></circle><circle r="16" cx="12" cy="584"></circle><circle r="27" cx="553" cy="54"></circle><circle r="43" cx="88" cy="291"></circle><circle r="22" cx="574" cy="177"></circle><circle r="41" cx="42" cy="3"></circle><circle r="16" cx="67" cy="892"></circle><circle r="25" cx="429" cy="800"></circle><circle r="32" cx="215" cy="511"></circle><circle r="13" cx="508" cy="407"></circle><circle r="20" cx="210" cy="302"></circle><circle r="42" cx="365" cy="339"></circle></g></svg>