<svg height="960" viewBox="0 0 540 960" width="540" xmlns="http://www.w3.org/2000/svg"><path d="m0 49h8.2c8.1 0 24.5 0 40.8 3.2 16.3 3.1 32.7 9.5 49 11.1 16.3 1.7 32.7-1.3 49 1.9 16.3 3.1 32.7 12.5 49 14s32.7-4.9 49.2-9.5c16.5-4.7 33.1-7.7 49.6-6 16.5 1.6 32.9 8 49.2 3.1 16.3-4.8 32.7-20.8 49-28.8s32.7-8 49-3.2c16.3 4.9 32.7 14.5 49 19.4 16.3 4.8 32.7 4.8 40.8 4.8h8.2v-59h-8.2c-8.1 0-24.5 0-40.8 0s-32.7 0-49 0-32.7 0-49 0-32.7 0-49 0-32.7 0-49.2 0-33.1 0-49.6 0-32.9 0-49.2 0-32.7 0-49 0-32.7 0-49 0-32.7 0-49 0-32.7 0-40.8 0h-8.2z" fill="#faf9f4"/><path d="m0 135 8.2 4.8c8.1 4.9 24.5 14.5 40.8 19.4 16.3 4.8 32.7 4.8 49 4.8s32.7 0 49 6.5 32.7 19.5 49 14.7c16.3-4.9 32.7-27.5 49.2-38.9 16.5-11.3 33.1-11.3 49.6-12.8s32.9-4.5 49.2-15.7c16.3-11.1 32.7-30.5 49-32.1 16.3-1.7 32.7 14.3 49 20.8s32.7 3.5 49 8.3c16.3 4.9 32.7 17.5 40.8 23.9l8.2 6.3v-88h-8.2c-8.1 0-24.5 0-40.8-4.8-16.3-4.9-32.7-14.5-49-19.4-16.3-4.8-32.7-4.8-49 3.2s-32.7 24-49 28.8c-16.3 4.9-32.7-1.5-49.2-3.1-16.5-1.7-33.1 1.3-49.6 6-16.5 4.6-32.9 11-49.2 9.5s-32.7-10.9-49-14c-16.3-3.2-32.7-.2-49-1.9-16.3-1.6-32.7-8-49-11.1-16.3-3.2-32.7-3.2-40.8-3.2h-8.2z" fill="#d6d6cd"/><path d="m0 318 8.2 1.5c8.1 1.5 24.5 4.5 40.8 7.7 16.3 3.1 32.7 6.5 49 9.8s32.7 6.7 49 17.8c16.3 11.2 32.7 30.2 49 15.7s32.7-62.5 49.2-96 33.1-52.5 49.6-57.3c16.5-4.9 32.9 4.5 49.2 7.6 16.3 3.2 32.7.2 49-3 16.3-3.1 32.7-6.5 49-5s32.7 7.9 49 25.5c16.3 17.7 32.7 46.7 40.8 61.2l8.2 14.5v-175l-8.2-6.3c-8.1-6.4-24.5-19-40.8-23.9-16.3-4.8-32.7-1.8-49-8.3s-32.7-22.5-49-20.8c-16.3 1.6-32.7 21-49 32.1-16.3 11.2-32.7 14.2-49.2 15.7s-33.1 1.5-49.6 12.8c-16.5 11.4-32.9 34-49.2 38.9-16.3 4.8-32.7-8.2-49-14.7s-32.7-6.5-49-6.5-32.7 0-49-4.8c-16.3-4.9-32.7-14.5-40.8-19.4l-8.2-4.8z" fill="#b1b4a8"/><path d="m0 414 8.2-3.2c8.1-3.1 24.5-9.5 40.8-17.5s32.7-17.6 49-9.6 32.7 33.6 49 44.8 32.7 7.8 49-6.7 32.7-40.1 49.2-62.5c16.5-22.3 33.1-41.3 49.6-46.1 16.5-4.9 32.9 4.5 49.2 4.5s32.7-9.4 49-20.5c16.3-11.2 32.7-24.2 49-30.7s32.7-6.5 49 19.2c16.3 25.6 32.7 77 40.8 102.6l8.2 25.7v-98l-8.2-14.5c-8.1-14.5-24.5-43.5-40.8-61.2-16.3-17.6-32.7-24-49-25.5s-32.7 1.9-49 5c-16.3 3.2-32.7 6.2-49 3-16.3-3.1-32.7-12.5-49.2-7.6-16.5 4.8-33.1 23.8-49.6 57.3s-32.9 81.5-49.2 96-32.7-4.5-49-15.7c-16.3-11.1-32.7-14.5-49-17.8s-32.7-6.7-49-9.8c-16.3-3.2-32.7-6.2-40.8-7.7l-8.2-1.5z" fill="#939a8c"/><path d="m0 471 8.2 4.8c8.1 4.9 24.5 14.5 40.8 5s32.7-38.1 49-39.6 32.7 24.1 49 38.5c16.3 14.3 32.7 17.3 49 9.3s32.7-27 49.2-49.3c16.5-22.4 33.1-48 49.6-52.9 16.5-4.8 32.9 11.2 49.2 22.4 16.3 11.1 32.7 17.5 49 9.5s32.7-30.4 49-40c16.3-9.7 32.7-6.7 49 10.8s32.7 49.5 40.8 65.5l8.2 16v-59l-8.2-25.7c-8.1-25.6-24.5-77-40.8-102.6-16.3-25.7-32.7-25.7-49-19.2s-32.7 19.5-49 30.7c-16.3 11.1-32.7 20.5-49 20.5s-32.7-9.4-49.2-4.5c-16.5 4.8-33.1 23.8-49.6 46.1-16.5 22.4-32.9 48-49.2 62.5s-32.7 17.9-49 6.7-32.7-36.8-49-44.8-32.7 1.6-49 9.6-32.7 14.4-40.8 17.5l-8.2 3.2z" fill="#939a8c"/><path d="m0 721 8.2-4.8c8.1-4.9 24.5-14.5 40.8-27.4 16.3-12.8 32.7-28.8 49-36.8s32.7-8 49 9.7c16.3 17.6 32.7 53 49 57.8s32.7-20.8 49.2-49.7c16.5-28.8 33.1-60.8 49.6-64 16.5-3.1 32.9 22.5 49.2 35.4 16.3 12.8 32.7 12.8 49 17.6 16.3 4.9 32.7 14.5 49-4.6 16.3-19.2 32.7-67.2 49-80 16.3-12.9 32.7 9.5 40.8 20.6l8.2 11.2v-137l-8.2-16c-8.1-16-24.5-48-40.8-65.5s-32.7-20.5-49-10.8c-16.3 9.6-32.7 32-49 40s-32.7 1.6-49-9.5c-16.3-11.2-32.7-27.2-49.2-22.4-16.5 4.9-33.1 30.5-49.6 52.9-16.5 22.3-32.9 41.3-49.2 49.3s-32.7 5-49-9.3c-16.3-14.4-32.7-40-49-38.5s-32.7 30.1-49 39.6-32.7-.1-40.8-5l-8.2-4.8z" fill="#b1b4a8"/><path d="m0 913 8.2-14.3c8.1-14.4 24.5-43 40.8-54.2s32.7-4.8 49 4.7 32.7 22.1 49 27c16.3 4.8 32.7 1.8 49-3 16.3-4.9 32.7-11.5 49.2-11.5s33.1 6.6 49.6 16.3 32.9 22.3 49.2 23.8 32.7-8.1 49-11.3 32.7.2 49-4.7c16.3-4.8 32.7-17.8 49-17.8s32.7 13 40.8 19.5l8.2 6.5v-290l-8.2-11.2c-8.1-11.1-24.5-33.5-40.8-20.6-16.3 12.8-32.7 60.8-49 80-16.3 19.1-32.7 9.5-49 4.6-16.3-4.8-32.7-4.8-49-17.6-16.3-12.9-32.7-38.5-49.2-35.4-16.5 3.2-33.1 35.2-49.6 64-16.5 28.9-32.9 54.5-49.2 49.7s-32.7-40.2-49-57.8c-16.3-17.7-32.7-17.7-49-9.7s-32.7 24-49 36.8c-16.3 12.9-32.7 22.5-40.8 27.4l-8.2 4.8z" fill="#d6d6cd"/><path d="m0 961h8.2 40.8 49 49 49 49.2 49.6 49.2 49 49 49 40.8 8.2v-69l-8.2-6.5c-8.1-6.5-24.5-19.5-40.8-19.5s-32.7 13-49 17.8c-16.3 4.9-32.7 1.5-49 4.7s-32.7 12.8-49 11.3-32.7-14.1-49.2-23.8-33.1-16.3-49.6-16.3-32.9 6.6-49.2 11.5c-16.3 4.8-32.7 7.8-49 3-16.3-4.9-32.7-17.5-49-27s-32.7-15.9-49-4.7-32.7 39.8-40.8 54.2l-8.2 14.3z" fill="#faf9f4"/></svg>